<?xml version="1.0"?>
<svg xmlns="http://www.w3.org/2000/svg" version="1.1" width="600px" height="600px" viewBox="0 0 200 200" style="overflow:hidden!important;">
  <defs id="SvgjsDefs12309">
    <radialGradient id="SvgjsRadialGradient12375" cx="100" cy="114" r="41" gradientUnits="userSpaceOnUse" class="svga-on-canvas-facehighlight-gradient-single-0">
      <stop id="SvgjsStop12376" stop-opacity="0.5" stop-color="#dcbaa4" offset="0"/>
      <stop id="SvgjsStop12377" stop-opacity="0" stop-color="#cda184" offset="0.9"/>
    </radialGradient>
    <radialGradient id="SvgjsRadialGradient12379" cx="100" cy="54" r="37" gradientUnits="userSpaceOnUse" class="svga-on-canvas-facehighlight-gradient-single-1">
      <stop id="SvgjsStop12380" stop-opacity="0.5" stop-color="#dcbaa4" offset="0"/>
      <stop id="SvgjsStop12381" stop-opacity="0" stop-color="#cda184" offset="0.9"/>
    </radialGradient>
    <radialGradient id="SvgjsRadialGradient12464" cx="-568.659" cy="-521.042" r="59.751" gradientTransform="matrix(0.096 -0.0248 0.0245 0.0961 141.2814 119.9893)" gradientUnits="userSpaceOnUse" class="svga-on-canvas-eyesiris-gradient-left-1">
      <stop id="SvgjsStop12465" stop-opacity="1" stop-color="#ffffff" offset="0"/>
      <stop id="SvgjsStop12466" stop-opacity="0" stop-color="#ffffff" offset="1"/>
    </radialGradient>
    <radialGradient id="SvgjsRadialGradient12468" cx="-582.838" cy="-519.099" r="59.745" gradientTransform="matrix(0.0991 8.856319e-004 -0.0011 0.0991 131.1134 135.9855)" gradientUnits="userSpaceOnUse" class="svga-on-canvas-eyesiris-gradient-left-2">
      <stop id="SvgjsStop12469" stop-opacity="1" stop-color="#ffffff" offset="0"/>
      <stop id="SvgjsStop12470" stop-opacity="0" stop-color="#ffffff" offset="1"/>
    </radialGradient>
    <linearGradient id="SvgjsLinearGradient12474" x1="122.67" y1="88.268" x2="123.606" y2="87.152" gradientTransform="matrix(1 0 0 1 -52 0)" gradientUnits="userSpaceOnUse" class="svga-on-canvas-eyesiris-gradient-left-5">
      <stop id="SvgjsStop12475" stop-opacity="1" stop-color="#ffffff" offset="0"/>
      <stop id="SvgjsStop12476" stop-opacity="0" stop-color="#ffffff" offset="1"/>
    </linearGradient>
    <linearGradient id="SvgjsLinearGradient12478" x1="127.212" y1="82.296" x2="126.463" y2="83.189" gradientTransform="matrix(1 0 0 1 -52 0)" gradientUnits="userSpaceOnUse" class="svga-on-canvas-eyesiris-gradient-left-6">
      <stop id="SvgjsStop12479" stop-opacity="1" stop-color="#ffffff" offset="0"/>
      <stop id="SvgjsStop12480" stop-opacity="0" stop-color="#ffffff" offset="1"/>
    </linearGradient>
    <linearGradient id="SvgjsLinearGradient12482" x1="129.636" y1="79.822" x2="127.91" y2="81.879" gradientTransform="matrix(1 0 0 1 -52 0)" gradientUnits="userSpaceOnUse" class="svga-on-canvas-eyesiris-gradient-left-7">
      <stop id="SvgjsStop12483" stop-opacity="1" stop-color="#ffffff" offset="0"/>
      <stop id="SvgjsStop12484" stop-opacity="0" stop-color="#ffffff" offset="1"/>
    </linearGradient>
    <radialGradient id="SvgjsRadialGradient12487" cx="-568.654" cy="-521.042" r="59.752" gradientTransform="matrix(0.096 -0.0248 0.0245 0.0961 193.2804 119.9894)" gradientUnits="userSpaceOnUse" class="svga-on-canvas-eyesiris-gradient-right-1">
      <stop id="SvgjsStop12488" stop-opacity="1" stop-color="#ffffff" offset="0"/>
      <stop id="SvgjsStop12489" stop-opacity="0" stop-color="#ffffff" offset="1"/>
    </radialGradient>
    <radialGradient id="SvgjsRadialGradient12491" cx="-582.833" cy="-519.102" r="59.747" gradientTransform="matrix(0.0991 8.856319e-004 -0.0011 0.0991 183.1126 135.9856)" gradientUnits="userSpaceOnUse" class="svga-on-canvas-eyesiris-gradient-right-2">
      <stop id="SvgjsStop12492" stop-opacity="1" stop-color="#ffffff" offset="0"/>
      <stop id="SvgjsStop12493" stop-opacity="0" stop-color="#ffffff" offset="1"/>
    </radialGradient>
    <linearGradient id="SvgjsLinearGradient12497" x1="122.67" y1="88.268" x2="123.606" y2="87.152" gradientUnits="userSpaceOnUse" class="svga-on-canvas-eyesiris-gradient-right-5">
      <stop id="SvgjsStop12498" stop-opacity="1" stop-color="#ffffff" offset="0"/>
      <stop id="SvgjsStop12499" stop-opacity="0" stop-color="#ffffff" offset="1"/>
    </linearGradient>
    <linearGradient id="SvgjsLinearGradient12501" x1="127.212" y1="82.296" x2="126.463" y2="83.189" gradientUnits="userSpaceOnUse" class="svga-on-canvas-eyesiris-gradient-right-6">
      <stop id="SvgjsStop12502" stop-opacity="1" stop-color="#ffffff" offset="0"/>
      <stop id="SvgjsStop12503" stop-opacity="0" stop-color="#ffffff" offset="1"/>
    </linearGradient>
    <linearGradient id="SvgjsLinearGradient12505" x1="129.636" y1="79.822" x2="127.91" y2="81.879" gradientUnits="userSpaceOnUse" class="svga-on-canvas-eyesiris-gradient-right-7">
      <stop id="SvgjsStop12506" stop-opacity="1" stop-color="#ffffff" offset="0"/>
      <stop id="SvgjsStop12507" stop-opacity="0" stop-color="#ffffff" offset="1"/>
    </linearGradient>
    <linearGradient id="SvgjsLinearGradient14112" x1="72" y1="106" x2="72" y2="69" gradientUnits="userSpaceOnUse" class="svga-on-canvas-glasses-gradient-single-2">
      <stop id="SvgjsStop14113" stop-opacity="0.95" stop-color="#26120b" offset="0"/>
      <stop id="SvgjsStop14114" stop-opacity="1" stop-color="#26120b" offset="1"/>
    </linearGradient>
    <linearGradient id="SvgjsLinearGradient14173" x1="130" y1="69" x2="130" y2="109" gradientUnits="userSpaceOnUse" class="svga-on-canvas-glasses-gradient-single-0">
      <stop id="SvgjsStop14174" stop-opacity="1" stop-color="#000000" offset="0"/>
      <stop id="SvgjsStop14175" stop-opacity="0.8" stop-color="#000000" offset="1"/>
    </linearGradient>
    <linearGradient id="SvgjsLinearGradient14177" x1="130" y1="69" x2="130" y2="109" gradientTransform="matrix(-1 0 0 1 200 0)" gradientUnits="userSpaceOnUse" class="svga-on-canvas-glasses-gradient-single-1">
      <stop id="SvgjsStop14178" stop-opacity="1" stop-color="#000000" offset="0"/>
      <stop id="SvgjsStop14179" stop-opacity="0.8" stop-color="#000000" offset="1"/>
    </linearGradient>
    <linearGradient id="SvgjsLinearGradient14353" x1="100" y1="142" x2="100" y2="139" gradientUnits="userSpaceOnUse" class="svga-on-canvas-mouth-gradient-single-0">
      <stop id="SvgjsStop14354" stop-opacity="1" stop-color="#c59575" offset="0.1"/>
      <stop id="SvgjsStop14355" stop-opacity="1" stop-color="#be8a67" offset="1"/>
    </linearGradient>
    <radialGradient id="SvgjsRadialGradient14421" cx="126.035" cy="84.795" r="10.908" gradientTransform="matrix(-1 0 0 1 200 0)" gradientUnits="userSpaceOnUse" class="svga-on-canvas-eyesback-gradient-left-0">
      <stop id="SvgjsStop14422" stop-opacity="1" stop-color="#ffffff" offset="0"/>
      <stop id="SvgjsStop14423" stop-opacity="1" stop-color="#fdfefe" offset="0.544"/>
      <stop id="SvgjsStop14424" stop-opacity="1" stop-color="#f6f8f9" offset="0.74"/>
      <stop id="SvgjsStop14425" stop-opacity="1" stop-color="#eaeff2" offset="0.879"/>
      <stop id="SvgjsStop14426" stop-opacity="1" stop-color="#d9e3e8" offset="0.992"/>
      <stop id="SvgjsStop14427" stop-opacity="1" stop-color="#d8e2e7" offset="1"/>
    </radialGradient>
    <radialGradient id="SvgjsRadialGradient14429" cx="125.637" cy="84.795" r="10.908" gradientUnits="userSpaceOnUse" class="svga-on-canvas-eyesback-gradient-right-0">
      <stop id="SvgjsStop14430" stop-opacity="1" stop-color="#ffffff" offset="0"/>
      <stop id="SvgjsStop14431" stop-opacity="1" stop-color="#fdfefe" offset="0.544"/>
      <stop id="SvgjsStop14432" stop-opacity="1" stop-color="#f6f8f9" offset="0.74"/>
      <stop id="SvgjsStop14433" stop-opacity="1" stop-color="#eaeff2" offset="0.879"/>
      <stop id="SvgjsStop14434" stop-opacity="1" stop-color="#d9e3e8" offset="0.992"/>
      <stop id="SvgjsStop14435" stop-opacity="1" stop-color="#d8e2e7" offset="1"/>
    </radialGradient>
    <radialGradient id="SvgjsRadialGradient14437" cx="126.035" cy="84.795" r="10.908" gradientTransform="matrix(-1 0 0 1 200 0)" gradientUnits="userSpaceOnUse" class="svga-on-canvas-eyesfront-gradient-left-0">
      <stop id="SvgjsStop14438" stop-opacity="1" stop-color="#ffffff" offset="0"/>
      <stop id="SvgjsStop14439" stop-opacity="1" stop-color="#fdfefe" offset="0.544"/>
      <stop id="SvgjsStop14440" stop-opacity="1" stop-color="#f6f8f9" offset="0.74"/>
      <stop id="SvgjsStop14441" stop-opacity="1" stop-color="#eaeff2" offset="0.879"/>
      <stop id="SvgjsStop14442" stop-opacity="1" stop-color="#d9e3e8" offset="0.992"/>
      <stop id="SvgjsStop14443" stop-opacity="1" stop-color="#d8e2e7" offset="1"/>
    </radialGradient>
    <radialGradient id="SvgjsRadialGradient14447" cx="123.813" cy="83.449" fx="136.255" fy="83.484" r="17.696" gradientTransform="matrix(0.9998 0.0208 0.0166 -0.7998 -48.9873 147.6178)" gradientUnits="userSpaceOnUse" class="svga-on-canvas-eyesfront-gradient-left-3">
      <stop id="SvgjsStop14448" stop-opacity="1" stop-color="#be8a67" offset="0"/>
      <stop id="SvgjsStop14449" stop-opacity="0.3" stop-color="#be8a67" offset="0.7"/>
      <stop id="SvgjsStop14450" stop-opacity="0" stop-color="#cda184" offset="1"/>
    </radialGradient>
    <radialGradient id="SvgjsRadialGradient14452" cx="122.749" cy="106.061" r="28.568" gradientTransform="matrix(-0.8829 -0.4695 -0.4131 0.777 229.4492 81.2793)" gradientUnits="userSpaceOnUse" class="svga-on-canvas-eyesfront-gradient-left-4">
      <stop id="SvgjsStop14453" stop-opacity="0" stop-color="#000000" offset="0.9"/>
      <stop id="SvgjsStop14454" stop-opacity="0.2" stop-color="#000000" offset="1"/>
    </radialGradient>
    <radialGradient id="SvgjsRadialGradient14458" cx="125.637" cy="84.795" r="10.908" gradientUnits="userSpaceOnUse" class="svga-on-canvas-eyesfront-gradient-right-0">
      <stop id="SvgjsStop14459" stop-opacity="1" stop-color="#ffffff" offset="0"/>
      <stop id="SvgjsStop14460" stop-opacity="1" stop-color="#fdfefe" offset="0.544"/>
      <stop id="SvgjsStop14461" stop-opacity="1" stop-color="#f6f8f9" offset="0.74"/>
      <stop id="SvgjsStop14462" stop-opacity="1" stop-color="#eaeff2" offset="0.879"/>
      <stop id="SvgjsStop14463" stop-opacity="1" stop-color="#d9e3e8" offset="0.992"/>
      <stop id="SvgjsStop14464" stop-opacity="1" stop-color="#d8e2e7" offset="1"/>
    </radialGradient>
    <radialGradient id="SvgjsRadialGradient14468" cx="123.414" cy="83.449" fx="135.857" fy="83.484" r="17.696" gradientTransform="matrix(-0.9998 0.0208 -0.0166 -0.7998 248.1905 147.6261)" gradientUnits="userSpaceOnUse" class="svga-on-canvas-eyesfront-gradient-right-3">
      <stop id="SvgjsStop14469" stop-opacity="1" stop-color="#be8a67" offset="0"/>
      <stop id="SvgjsStop14470" stop-opacity="0.3" stop-color="#be8a67" offset="0.7"/>
      <stop id="SvgjsStop14471" stop-opacity="0" stop-color="#cda184" offset="1"/>
    </radialGradient>
    <radialGradient id="SvgjsRadialGradient14473" cx="122.351" cy="106.061" r="28.568" gradientTransform="matrix(0.8829 -0.4695 0.4131 0.777 -29.4959 81.0923)" gradientUnits="userSpaceOnUse" class="svga-on-canvas-eyesfront-gradient-right-4">
      <stop id="SvgjsStop14474" stop-opacity="0" stop-color="#000000" offset="0.9"/>
      <stop id="SvgjsStop14475" stop-opacity="0.2" stop-color="#000000" offset="1"/>
    </radialGradient>
    <linearGradient id="SvgjsLinearGradient14572" x1="100" y1="172" x2="100" y2="122" gradientUnits="userSpaceOnUse" class="svga-on-canvas-chinshadow-gradient-single-0">
      <stop id="SvgjsStop14573" stop-opacity="0.8" stop-color="#be8a67" offset="0"/>
      <stop id="SvgjsStop14574" stop-opacity="1" stop-color="#9f6037" offset="0.7"/>
    </linearGradient>
  </defs>
  <g id="svga-group-wrapper">
    <g id="svga-group-backs-single"/>
    <g id="svga-group-humanwrap-move" transform="matrix(1,0,0,1,0,4)">
      <g id="svga-group-humanwrap" transform="matrix(0.8499995000000001,0,0,0.8499995000000001,14.998377583460325,16.25214167133616)">
        <g id="svga-group-hair-back-move" transform="matrix(0.9999999999999999,1.7453293948976878e-9,-1.7453293948976878e-9,0.9999999999999999,2.6179942835824477e-7,-1.7453291434321727e-7)">
          <g id="svga-group-hair-back" transform="matrix(1,0,0,1,0,0)">
            <path id="SvgjsPath14611" d="M100.5,100.5h-1v-1h1V100.5z" fill="#080806" stroke-width="none" opacity="1"/>
          </g>
        </g>
        <g id="svga-group-humanbody-single">
          <path id="SvgjsPath12382" d="M195.417 199.778c-2.196-4.746-8.195-11.779-14.86-13.722 -8.239-2.403-26.837-5.308-33.733-6.923 -5.528-1.296-16.662-11.294-20.564-14.65 -0.7-0.6-1.273-1.839-1.287-2.76 -0.139-10.864 4.195-39.724 4.195-39.724H100 70.833c0 0 4.334 28.859 4.193 39.724 -0.011 0.921-0.587 2.16-1.285 2.76 -3.902 3.356-15.036 13.354-20.564 14.65 -6.897 1.615-25.495 4.619-33.733 7.022 -6.667 1.942-12.664 8.876-14.86 13.622 -3.708 8.008-4.584 22.5-4.584 35h100 100C200 222.278 199.123 207.786 195.417 199.778z" fill="#cda184" stroke-width="none" opacity="1" stroke="none"/>
          <path id="SvgjsPath12383" d="M159.156 184.058c24.342 3.542 34.586 8.708 37.794 50.721H200c0-12.5-0.877-26.992-4.583-35 -2.196-4.746-8.195-11.779-14.86-13.722 -8.239-2.403-26.837-5.308-33.733-6.923 -5.528-1.296-18.242-12.069-21.643-16.35 3.36 4.704 12.791 15.605 21.054 18.46C150.188 182.61 153.48 183.232 159.156 184.058zM53.766 181.244c8.263-2.854 17.693-13.756 21.054-18.46 -3.4 4.28-16.114 15.054-21.643 16.35 -6.896 1.615-25.494 4.619-33.733 7.022 -6.665 1.942-12.664 8.876-14.86 13.622 -3.706 8.008-4.583 22.5-4.583 35h3.05c3.188-41.744 13.475-47.183 37.794-50.721C46.52 183.232 49.813 182.61 53.766 181.244z" fill="#dcbaa4" stroke-width="none" opacity="1" stroke="none"/>
          <path id="SvgjsPath12384" d="M95.646 197.62c0 0-5.074-1.609-7.083-2.379 -10.449-4.009-44.395-6.607-44.395-6.607s35.754 1.419 43.644 2.779c-0.458-4.767-3.017-20.004-3.017-20.004s5.149 16.815 6.409 21.057C91.878 194.734 95.646 197.62 95.646 197.62zM106.445 196.278c-0.089 0.073-0.191 0.168-0.302 0.268C106.256 196.461 106.358 196.372 106.445 196.278zM95.646 197.62c0 0 2.893 2.992 4.347 3.03 1.91 0.051 4.828-2.899 6.151-4.104 -1.265 0.957-4.159 1.391-5.31 1.436C99.504 198.033 95.646 197.62 95.646 197.62zM116.664 190.101c-1.545 0.248-4.386 0.789-4.386 0.789l2.287-14.89c-0.646 3.071-4.474 16.211-8.12 20.278 1.91-1.616 6.158-2.391 8.324-2.704 10.236-1.484 10.232-1.483 41.062-4.94C155.831 188.634 126.76 188.479 116.664 190.101z" fill="#be8a67" stroke-width="none" opacity="1" stroke="none"/>
          <path id="SvgjsPath12385" d="M195.417 199.778c-2.196-4.746-8.195-11.779-14.86-13.722 -8.239-2.403-26.837-5.308-33.733-6.923 -5.528-1.296-16.662-11.294-20.564-14.65 -0.7-0.6-1.273-1.839-1.287-2.76 -0.139-10.864 4.195-39.724 4.195-39.724H100 70.833c0 0 4.334 28.859 4.193 39.724 -0.011 0.921-0.587 2.16-1.285 2.76 -3.902 3.356-15.036 13.354-20.564 14.65 -6.897 1.615-25.495 4.619-33.733 7.022 -6.667 1.942-12.664 8.876-14.86 13.622 -3.708 8.008-4.584 22.5-4.584 35h100 100C200 222.278 199.123 207.786 195.417 199.778z" fill="none" stroke="#9f6037" stroke-width="1.5" opacity="1"/>
        </g>
        <g id="svga-group-chinshadow-single">
          <path id="SvgjsPath14571" d="M75.517 163.052c6.979 4.54 16.307 8.814 24.485 8.814 7.828 0 17.345-4.309 24.458-8.869 -0.145-0.428-0.233-0.862-0.239-1.264 -0.126-9.877 3.345-34.021 4.076-38.983H71.703c0.73 4.963 4.202 29.106 4.074 38.982C75.772 162.146 75.676 162.603 75.517 163.052z" fill="url(#SvgjsLinearGradient14572)" opacity="1"/>
        </g>
        <g id="svga-group-clothes-single">
          <path id="SvgjsPath14584" d="M197.798 201.546c-10.478-20.278-30.653-17.404-49.968-22.843 -0.468 3.585-13.251 20.479-16.287 30.061 -1.705-1.423-3.74-3.325-5.209-5.066 -7.188-8.443-17.841-35.76-21.416-14.428 0.777-9.576 5.003-11.686 10.871-3.659 6.308 8.638 6.542 13.098 15.542 22.491 1.59-6.601 5.032-11.259 9.036-17.104 3.875-5.663 6.705-8.217 7.119-13.258 -1.445-2.408-1.099-3.486-3.434-5.046 -14.655-9.912-4.192-19.97-17.476-22.365 -0.104 1.198-0.235 2.54-0.345 3.549 2.841 1.462 3.691 7.152-0.683 11.318 -6.951 7.631-18.12 8.01-21.032 19.723l-0.007-0.001c-0.927 3.477-1.669 8.799-2.021 11.919l-2.455 24.898 -2.47-24.457c-2.003-18.359-4.621-20.155-13.183-25.828 -5.673-3.76-14.943-9.433-11.917-15.847 0.345-0.742 0.765-1.198 1.286-1.541 -0.15-1.466-0.238-2.316-0.354-3.678 -10.967 0.467-9.281 15.982-17.586 21.69 -2.177 1.496-3.287 2.879-4.068 5.129 0.531 6.281 14.504 20.476 16.945 30.899 9.085-9.592 9.155-13.783 15.5-22.459 5.465-7.465 9.928-6.699 10.867 3.403 -0.516-3.035-1.738-7.681-4.386-7.681 -2.182 0-4.456 3.218-5.581 4.771 -6.299 8.678-7.311 14.885-16.647 22.633 -0.646-1.941-1.404-3.891-2.308-5.706 -3.7-7.474-13.719-22.555-14.858-24.017 -4.428 1.246-11.177 2.626-15.233 3.3 -26.504 4.411-36.778 12.969-40.685 53.031 97.202-0.984 136.811-0.556 209.21-0.556C203.66 225.907 201.881 209.46 197.798 201.546z" fill="#3f82a4" stroke-width="none" opacity="1"/>
          <path id="SvgjsPath14585" d="M139.969 190.783c-3.461 5.054-6.201 9.3-7.908 14.621 1.967-10.979 14.436-21.374 13.086-27.939 -0.578-2.812-10.526-9.081-11.041-18.4 2.745 8.538 12.992 14.632 13.009 18.723C147.142 184.482 146.942 180.595 139.969 190.783zM204.486 234.028c0.347-8.682-2.572-25.584-6.19-32.598 -10.478-20.278-31.563-17.691-50.877-23.13 -0.171 0.218 0.49 1.66 0.027 2.28C192.595 188.9 197.736 198.817 204.486 234.028zM55.812 172.075c5.547-4.597 7.21-9.05 8.483-13.011 -2.85 16.28-7.111 10.123-10.22 18.276 -1.778 4.663 12.003 17.403 13.866 28.063 -2.442-4.175-5.06-9.313-8.521-14.367 -2.694-3.937-4.41-7.537-7.079-10.567C51.069 173.756 53.696 173.829 55.812 172.075zM52.34 180.47c-0.463-0.62-0.894-1.204-1.065-1.422 -19.314 5.438-38.594 2.104-49.071 22.383 -3.619 7.014-5.426 21.363-6.423 30.064 1.929-10.573 4.804-23.893 10.963-31.929C17.188 185.399 36.46 182.665 52.34 180.47z" fill="#5794b3" stroke-width="none" opacity="1"/>
          <path id="SvgjsPath14586" d="M119.848 171.392c-4.863 2.82-8.981 5.588-11.713 9.481 6.567 0.362 11.421 12.099 12.734 13.695 -12.333-17.166-17-5.5-18.5 5.432 0.432-3.546 0.787-9.596 1.487-12.193 0.204-1.033 0.423-2.021 0.654-2.889l0.007 0.001c2.912-11.713 14.081-12.092 21.032-19.723 4.374-4.166 3.523-9.856 0.683-11.318 0.109-1.009 0.241-2.351 0.345-3.549 0.729 0.133 1.379 0.292 1.982 0.469C137.518 158.679 125.96 168.657 119.848 171.392zM78.965 171.392c4.864 2.82 10.812 6.162 13.536 9.717 -4.798-0.873-10.131 6.294-12.798 12.627 11.5-14.667 15-6.333 18.667 6.265 -0.431-3.545-1.524-9.596-2.224-12.193 -0.204-1.033-0.422-2.021-0.654-2.889l-0.006 0.001c-2.912-11.713-13.682-12.092-20.633-19.723 -4.374-4.166-3.622-9.856-0.781-11.318 -0.109-1.009-0.24-2.351-0.344-3.549 -0.729 0.133-1.379 0.292-1.982 0.469C64.238 159.967 73.472 168.06 78.965 171.392z" fill="#2a7195" stroke-width="none" opacity="1"/>
          <path id="SvgjsPath14587" d="M125.876 163.323c0.031-5.701-0.159-2.538 0.418-8.99C128.518 155.526 128.801 160.423 125.876 163.323zM74.139 162.784c-2.323-3.04-2.61-6.145-0.347-8.49C74.334 159.352 74.059 158.742 74.139 162.784z" fill="#196185" stroke-width="none" opacity="1"/>
          <path id="SvgjsPath14588" d="M147.624 176.915c-0.206-3.542-7.813-6.496-11.188-14.175 -2.417-5.47-0.123-11.734-10.065-12.741 -0.545 3.187-1.028 10.193-0.883 13.579 -5.038 5.423-12.831 6.826-17.785 12.657 -5.288 6.224-7.58 19.7-7.667 47.667l1.232-0.801c0 0 1.372-26.485 1.382-26.563 3.084-26.427 12.888-20.185 22.979-31.263 4.521-4.332 3.441-10.072 0.722-11.463 0.118-1.12 0.228-2.229 0.325-3.35 8.552 1.571 6.109 6.605 8.784 12.753 3.556 8.174 10.297 9.959 10.732 13.923 0.69 6.281-3.058 8.947-6.817 14.434 -5.913 8.559-7.28 12.925-8.101 16.308 -8.975-9.426-8.98-13.558-15.398-22.338 -6.844-9.366-11.339-4.974-13.226 10.996 0.194-2.625 3.77-17.175 8.043-14.651 4.939 2.878 9.791 15.108 15.561 21.886 1.539 1.823 3.521 3.652 5.345 5.182 3.407-11.897 16-24.465 16.408-30.205 19.695 5.556 53.439-0.145 56.441 55.963 -41.138 0.22-85.815-0.682-208.97 0.554 1.785-18.437 4.804-36.508 15.723-44.653 4.685-3.507 10.117-5.341 15.712-6.508 7.797-1.616 16.522-2.655 24.253-4.747 0.788 1 14.205 21.198 17.224 29.597 10.863-8.503 15.207-24.459 21.188-27.214 4.164-1.913 7.559 11.938 7.753 14.553 -1.63-16.891-6.95-22.418-17.024-4.923 -4.964 8.624-6.28 10.962-11.56 16.51 -2.12-8.994-16.895-25.954-16.253-30.662 0.634-4.646 6.314-3.363 10.098-13.244 2.122-5.54 1.652-11.648 10.708-13.455 0.098 1.167 0.217 2.32 0.336 3.486 -2.479 1.631-3.109 7.111 0.852 10.942 3.567 4.085 10.004 6.416 14.255 9.676 5.011 3.867 6.993 7.827 8.588 21.67 0.035 0.302 1.37 26.942 1.37 26.942l1.333 0.667c-0.667-27.833-3.335-44.568-8.721-49.258 -4.652-4.15-12.775-6.796-16.717-11.429 0.12-3.476-0.565-10.518-0.993-13.171 -9.009 0.918-9.264 6.638-11.196 11.632 -5.165 13.351-10.134 9.527-10.957 15.059 -0.077 0.517 0.042 0.906 0.167 1.594 -7.58 1.548-17.04 2.563-24.641 3.953 -11.343 2.071-22.045 8.058-26.925 19.452 -3.707 8.647-4.781 24.051-5.053 33.543 -0.011 0.068-0.011 0.147-0.011 0.215 0.152 0.012 0.314 0.012 0.466 0.012 130.475 1.387 208.449-0.578 209.534-0.578C205.369 181.568 176.202 183.902 147.624 176.915zM125.976 163.024c0.016-2.933 0.105-6.329 0.318-8.691C127.892 155.473 129.133 159.262 125.976 163.024zM74.088 162.593c-2.652-3.471-1.6-6.836-0.396-8C73.943 156.939 74.042 160.224 74.088 162.593z" fill="#0a5276" stroke-width="none" opacity="1"/>
        </g>
        <g id="svga-group-head" transform="matrix(0.9999999999999999,1.7453293948976878e-9,-1.7453293948976878e-9,0.9999999999999999,2.6179942835824477e-7,-1.7453291434321727e-7)">
          <g id="svga-group-ears-left-move" transform="matrix(1,0,0,1,0,0)">
            <g id="svga-group-ears-left" transform="matrix(0.9999999,0,0,0.9999999,0.0000043454111064988865,0.000009699814981445343)">
              <path id="SvgjsPath14564" d="M46.778 83.613c-2.623-1.48-8.575-8.52-11.138-7.517 -1.655 0.646-2.377 5.504-2.638 7.47 -0.333 2.525-0.929 7.711-0.328 10.185 0.725 2.985 3.631 8.507 5.37 11.027 1.468 2.122 5.211 5.797 6.407 8.088 0.759 1.454 1.493 5.373 4.083 5.12 1.674-0.164 5.537-3.072 5.744-4.452C55.406 106.057 51.943 86.528 46.778 83.613z" fill="#cda184" stroke="#9f6037" stroke-width="1.5" opacity="1"/>
              <path id="SvgjsPath14565" d="M43.313 99.76c-0.125-0.556 0.006-1.491 0.133-2.395 0.115-0.824 0.224-1.601 0.158-2.151 -0.251-2.06-1.66-5.975-2.578-8.097 -1.059-2.44-2.771-5.515-4.919-6.307 -0.888-0.33-1.473 0.063-1.813 0.461 -0.248 0.292-0.305 0.636-0.223 0.676 0.082 0.041 0.266-0.244 0.535-0.512 0.219-0.219 0.542-0.407 0.983-0.368 -0.178 1.026-1.091 6.582-0.696 10.369 0.311 2.978 1.489 5.202 1.673 5.536 0.028 0.352 0.073 0.695 0.139 1.028 0.869 4.347 4.648 9.29 5.963 10.908 0.243 0.298 0.496 0.476 0.56 0.404 0.062-0.074-0.087-0.368-0.33-0.668 -1.298-1.609-5.042-6.533-5.879-10.728 -0.89-4.45 2.167-11.048 2.849-12.443 0.348 0.655 0.643 1.285 0.87 1.809 0.179 0.412 0.378 0.894 0.581 1.414 -0.402 0.729-3.211 6.042-2.187 10.295 0.38 1.568 2.088 3.589 3.223 4.143 0.624 0.306 0.859 0.761 1.13 1.288 0.314 0.613 0.673 1.307 1.708 1.81 0.211 0.101 0.402 0.144 0.571 0.144 0.293 0 0.515-0.126 0.679-0.281 0.017 0.268 0.016 0.611 0.007 0.928 -0.01 0.411 0.041 0.747 0.129 0.756 0.088 0.008 0.182-0.318 0.192-0.726 0.016-0.503 0.013-1.125-0.067-1.422 -0.232-0.877-0.942-1.867-1.694-2.915C44.27 101.685 43.504 100.618 43.313 99.76zM36.538 95.905c-2.035-6.825 0-13.093 0.458-14.029 0.795 0.785 2.108 2.213 2.679 3.239C39.258 85.938 36.623 91.315 36.538 95.905zM45.318 105.891c-0.938-0.456-1.253-1.067-1.557-1.657 -0.275-0.535-0.56-1.087-1.281-1.44 -0.157-0.077-0.33-0.193-0.505-0.328 -2.324-5.988 0.254-8.606 0.899-9.142 0.199 0.731 0.346 1.403 0.411 1.941 0.061 0.495-0.05 1.28-0.156 2.041 -0.132 0.942-0.268 1.916-0.127 2.546 0.211 0.94 0.999 2.038 1.76 3.1 0.677 0.943 1.373 1.915 1.609 2.708C46.271 105.818 45.949 106.195 45.318 105.891z" fill="#9f6037" stroke-width="none" opacity="1" stroke="none"/>
            </g>
          </g>
          <g id="svga-group-ears-right-move" transform="matrix(1,0,0,1,0,0)">
            <g id="svga-group-ears-right" transform="matrix(0.9999999,0,0,0.9999999,0.000015628426353941904,0.000009699814981445343)">
              <path id="SvgjsPath14566" d="M152.961 83.613c2.623-1.48 8.574-8.52 11.137-7.517 1.656 0.646 2.379 5.504 2.639 7.47 0.334 2.525 0.928 7.711 0.328 10.185 -0.725 2.985-3.631 8.507-5.371 11.027 -1.467 2.122-5.211 5.797-6.406 8.088 -0.76 1.454-1.492 5.373-4.084 5.12 -1.674-0.164-5.535-3.072-5.744-4.452C144.332 106.057 147.795 86.528 152.961 83.613z" fill="#cda184" stroke="#9f6037" stroke-width="1.5" opacity="1"/>
              <path id="SvgjsPath14567" d="M154.729 102.716c-0.752 1.047-1.463 2.038-1.695 2.915 -0.078 0.297-0.082 0.919-0.066 1.422 0.012 0.407 0.105 0.733 0.193 0.726 0.088-0.009 0.139-0.345 0.129-0.756 -0.01-0.316-0.01-0.66 0.006-0.928 0.164 0.155 0.387 0.281 0.68 0.281 0.168 0 0.359-0.043 0.57-0.144 1.035-0.503 1.395-1.196 1.709-1.81 0.271-0.527 0.506-0.982 1.131-1.288 1.133-0.554 2.842-2.575 3.223-4.143 1.023-4.253-1.785-9.566-2.188-10.295 0.203-0.52 0.402-1.002 0.582-1.414 0.225-0.524 0.521-1.154 0.869-1.809 0.682 1.395 3.738 7.993 2.848 12.443 -0.838 4.195-4.582 9.118-5.879 10.728 -0.242 0.3-0.393 0.594-0.33 0.668 0.064 0.071 0.318-0.106 0.561-0.404 1.314-1.618 5.094-6.561 5.963-10.908 0.066-0.333 0.111-0.677 0.139-1.028 0.184-0.334 1.363-2.558 1.674-5.536 0.395-3.788-0.518-9.343-0.695-10.369 0.441-0.039 0.764 0.149 0.982 0.368 0.268 0.268 0.453 0.552 0.535 0.512 0.08-0.041 0.023-0.384-0.223-0.676 -0.342-0.397-0.926-0.791-1.813-0.461 -2.148 0.792-3.861 3.867-4.92 6.307 -0.92 2.123-2.326 6.037-2.578 8.097 -0.066 0.55 0.043 1.328 0.158 2.151 0.127 0.904 0.256 1.839 0.133 2.395C156.234 100.618 155.469 101.685 154.729 102.716zM160.064 85.115c0.57-1.026 1.883-2.455 2.678-3.239 0.457 0.936 2.494 7.204 0.459 14.029C163.115 91.315 160.48 85.938 160.064 85.115zM153.367 105.66c0.236-0.793 0.932-1.765 1.609-2.708 0.762-1.063 1.549-2.16 1.76-3.1 0.141-0.631 0.006-1.604-0.127-2.546 -0.105-0.76-0.217-1.546-0.156-2.041 0.066-0.539 0.213-1.21 0.412-1.941 0.645 0.536 3.223 3.154 0.898 9.142 -0.176 0.134-0.348 0.25-0.504 0.328 -0.723 0.353-1.008 0.905-1.281 1.44 -0.305 0.59-0.619 1.201-1.559 1.657C153.789 106.195 153.467 105.818 153.367 105.66z" fill="#9f6037" stroke-width="none" opacity="1" stroke="none"/>
            </g>
          </g>
          <g id="svga-group-faceshape-wrap" transform="matrix(1,0,0,1,0,0)">
            <g id="svga-group-faceshape-single">
              <path id="SvgjsPath14568" d="M100.002 0.867C66.384 0.92 39.082 28.536 39.134 62.56c0.009 5.403 0.704 10.643 2.002 15.634h0.001c0.012 0.054 8.341 20.48 10.463 33.205 2.38 14.276 10.462 30.232 16.302 35.786 6.052 5.756 20.281 14.682 32.099 14.682 11.267 0 26.046-8.926 32.099-14.682 5.84-5.554 13.922-21.51 16.302-35.786 2.122-12.725 10.452-33.151 10.463-33.205h0.002c1.298-4.992 1.994-10.231 2.002-15.634C160.923 28.536 133.62 0.92 100.002 0.867z" fill="#cda184" stroke-width="none" opacity="1"/>
              <path id="SvgjsPath14569" d="M136.901 13.53c12.866 11.318 21.063 28.416 21.036 47.539 -0.009 5.403-0.671 10.642-1.906 15.634h-0.001c-0.011 0.054-7.939 20.48-9.959 33.205 -2.267 14.277-9.959 30.233-15.517 35.786 -5.761 5.757-19.828 14.683-30.552 14.683 -11.249 0-24.792-8.926-30.552-14.683 -5.558-5.553-13.25-21.509-15.516-35.786 -2.02-12.724-9.948-33.15-9.959-33.205h-0.001c-1.236-4.992-1.898-10.231-1.906-15.634 -0.028-19.122 8.168-36.218 21.033-47.537C48.519 24.809 39.104 42.574 39.134 62.56c0.009 5.403 0.704 10.643 2.002 15.634h0.001c0.012 0.054 8.341 20.48 10.463 33.205 2.38 14.276 10.462 30.232 16.302 35.786 6.052 5.756 20.281 14.682 32.099 14.682 11.267 0 26.046-8.926 32.099-14.682 5.84-5.554 13.922-21.51 16.302-35.786 2.122-12.725 10.452-33.151 10.463-33.205h0.002c1.298-4.992 1.994-10.231 2.002-15.634C160.901 42.573 151.485 24.806 136.901 13.53z" fill="#c59575" stroke-width="none" opacity="1"/>
              <path id="SvgjsPath14570" d="M100.002 0.867C66.384 0.92 39.082 28.536 39.134 62.56c0.009 5.403 0.704 10.643 2.002 15.634h0.001c0.012 0.054 8.341 20.48 10.463 33.205 2.38 14.276 10.462 30.232 16.302 35.786 6.052 5.756 20.281 14.682 32.099 14.682 11.267 0 26.046-8.926 32.099-14.682 5.84-5.554 13.922-21.51 16.302-35.786 2.122-12.725 10.452-33.151 10.463-33.205h0.002c1.298-4.992 1.994-10.231 2.002-15.634C160.923 28.536 133.62 0.92 100.002 0.867z" fill="none" stroke="#9f6037" stroke-width="1.5" opacity="1"/>
            </g>
          </g>
          <g id="svga-group-mouth-single-move" transform="matrix(1,0,0,1,0,0)">
            <g id="svga-group-mouth-single" transform="matrix(1.0500003000000002,0,0,1.0500003000000002,-5.0000231335037455,-6.846583437652612)">
              <path id="SvgjsPath14575" d="M100.34 141.925c-1.526 0-2.998-0.193-3.9-0.547 -0.257-0.102-0.384-0.392-0.283-0.648 0.101-0.257 0.39-0.383 0.648-0.283 1.664 0.653 5.855 0.676 7.704-0.193 0.251-0.117 0.548-0.01 0.665 0.239 0.118 0.25 0.011 0.548-0.239 0.665C103.815 141.684 102.044 141.925 100.34 141.925zM115.025 133.444c0.398-0.171 0.584-0.632 0.413-1.031s-0.635-0.583-1.031-0.413c-11.666 4.992-28.742 0.338-28.912 0.292 -0.417-0.116-0.852 0.127-0.968 0.546 -0.116 0.418 0.128 0.851 0.546 0.968 0.463 0.128 7.692 2.1 16.034 2.1C105.727 135.905 110.685 135.301 115.025 133.444z" fill="#9f6037" stroke-width="none" opacity="1"/>
            </g>
          </g>
          <g id="svga-group-eyes-left-move" transform="matrix(1,0,0,1,0,0)">
            <g id="svga-group-eyes-left" transform="matrix(1,0,0,1,0,0)">
              <g id="svga-group-eyesback-left">
                <path id="SvgjsPath14420" d="M60.505 80.842c0.241 2.336 0.667 11.497 13.706 11.489 5.836-0.005 13.361-3.612 13.211-8.063 0 0-6.704-7.009-14-7.009S60.504 80.831 60.505 80.842z" fill="url(#SvgjsRadialGradient14421)" opacity="1"/>
              </g>
              <g id="svga-group-eyesiriswrapper-left" transform="matrix(1,0,0,1,0.5,0.75)">
                <g id="svga-group-eyesiriscontrol-left" transform="matrix(1,0,0,1,0,0)">
                  <g id="svga-group-eyesiris-left" transform="matrix(1,0,0,1,0,0)">
                    <path id="SvgjsPath14478" d="M80 84c0 3.313-2.687 5.999-6 5.999S68 87.313 68 84c0-3.316 2.687-6.001 6-6.001S80 80.685 80 84z" fill="#000000" stroke-width="none" opacity="1"/>
                    <path id="SvgjsPath14479" d="M70.512 86.805c0.875-0.072 0.1-0.306 0.1-0.306 -0.433-0.233-1.248-0.592-1.248-0.921 0-1.031 1.414-1.299-0.034-1.705 -1.504-1.38 1.167-1.352 1.147-1.398 -0.975-2.376 0.299-1.071 0.835-1.773 1.988-2.599 0.554 0.267 1.633 0 0.391-0.096-0.78-1.531 0.034-1.33 0.539 0.132 0.662 0.58 0.662 0.58 0.393-0.077 1.008-0.682 1.008-0.682 0.749 0.226 1.275 1.29 1.043 1.091 0.368-0.045 0.884-0.221 1.286-0.341 0 0 0.07-0.239 0.139-0.033 0.917 2.661 3.284 2.47 0.559 3.24 0 0-0.176 0 0.382 0.442 2.71 2.164-2.102 1.495 0.451 2.49 0.104-0.104-1.53 0.965-1.53 1.261 0 0.501-1.042 1.818-1.946 1.3 -0.504-0.288-0.581 0.6-0.877 0.19 -0.581-0.803-1.742-0.035-1.313-0.773 0.634-0.521-0.654 0.204-0.904 0.204 -0.828 0 1.083-2.783 3.894-0.715 0.822 0.602-0.864-1.433 0.625-1.433 0.149 0.049 0.104-0.521 0.104-0.682 -0.774-0.151 1.39-0.003 1.39-1.262 0.137 0.027 0.509-0.35-1.635 0 0 0-0.068-0.75-0.034-0.886 0.11-0.438 1.214-0.298 0.904-0.75 0-0.001-0.799-1.604-0.799-1.604 -2.573-0.414-1.102-0.672-2.711-0.341 -0.076 0.378-3.445 1.984-3.338 2.729 0.1 0.702 2.115 0.938 0.208 2.182C73.405 91.051 68.437 85.454 70.512 86.805z" fill="#0f0f0f" stroke-width="none" opacity="1"/>
                    <path id="SvgjsPath14480" d="M74 78.749l0.171 4.393 1.837-3.993 -1.523 4.123 3.227-2.985 -2.985 3.226 4.124-1.523 -3.992 1.839 4.392 0.17 -4.392 0.17 3.992 1.839 -4.124-1.523 2.985 3.226 -3.227-2.985 1.523 4.123 -1.837-3.993L74 89.249l-0.171-4.393 -1.838 3.993 1.522-4.123 -3.226 2.985 2.985-3.226 -4.124 1.523 3.992-1.839 -4.39-0.17 4.39-0.17 -3.992-1.839 4.124 1.523 -2.985-3.226 3.226 2.985 -1.522-4.123 1.838 3.993L74 78.749z" fill="#000000" stroke-width="none" opacity="1"/>
                    <path id="SvgjsPath14481" d="M74.796 80.067l-0.539 3.315 1.981-2.711 -1.766 2.857 2.87-1.748 -2.725 1.964 3.319-0.515L74.668 84l3.266 0.794 -3.317-0.538 2.712 1.982 -2.858-1.765 1.748 2.869 -1.964-2.725 0.516 3.319 -0.771-3.27 -0.795 3.264 0.539-3.315 -1.984 2.711 1.768-2.857 -2.869 1.748 2.725-1.964 -3.319 0.516 3.269-0.771 -3.264-0.793 3.315 0.537 -2.712-1.982 2.858 1.765 -1.747-2.869 1.964 2.725 -0.516-3.318 0.772 3.27L74.796 80.067z" fill="#000000" stroke-width="none" opacity="1"/>
                    <path id="SvgjsPath14482" d="M76.25 84c0 1.243-1.008 2.25-2.25 2.25s-2.25-1.007-2.25-2.25 1.008-2.25 2.25-2.25S76.25 82.757 76.25 84z" fill="#000000" stroke-width="none" opacity="0.9"/>
                    <path id="SvgjsPath14483" d="M71.637 88.311c-0.331 0.332-0.985 0.215-1.46-0.261 -0.476-0.475-0.593-1.129-0.261-1.461 0.331-0.331 0.985-0.214 1.46 0.261C71.852 87.326 71.969 87.979 71.637 88.311z" fill="#ffffff" stroke-width="none" opacity="0.7"/>
                    <path id="SvgjsPath14484" d="M78.806 82.818c-0.496 0.496-1.697 0.1-2.682-0.886 -0.986-0.986-1.382-2.187-0.886-2.683 0.496-0.496 1.697-0.1 2.682 0.886C78.906 81.122 79.302 82.322 78.806 82.818z" fill="#ffffff" stroke-width="none" opacity="0.9"/>
                  </g>
                </g>
              </g>
              <g id="svga-group-eyesfront-left">
                <path id="SvgjsPath14445" d="M55.199 83.999c0 13.807 8.507 25 19 25s19-11.193 19-25 -8.507-25-19-25S55.199 70.192 55.199 83.999zM60.505 80.842c-0.001-0.011 5.621-3.583 12.917-3.583s14 7.009 14 7.009c0.15 4.45-7.375 8.058-13.211 8.063C61.172 92.339 60.746 83.179 60.505 80.842z" fill="#cda184" stroke-width="none" opacity="1" stroke="none"/>
                <path id="SvgjsPath14446" d="M58.098 84.073c-0.078 7.733 8.894 13.964 18.553 13.926 9.657-0.044 17.473-6.342 17.446-14.077C94.072 76.191 86.23 69.959 76.57 70 66.909 70.043 58.202 73.495 58.098 84.073zM60.505 80.842c-0.001-0.011 5.621-3.583 12.917-3.583s14 7.009 14 7.009c0.15 4.45-7.375 8.058-13.211 8.063C61.172 92.339 60.746 83.179 60.505 80.842z" fill="url(#SvgjsRadialGradient14447)" opacity="1"/>
                <path id="SvgjsPath14451" d="M60.505 80.842c0.241 2.336 0.667 11.497 13.706 11.489 5.836-0.005 13.361-3.612 13.211-8.063 0 0-6.704-7.009-14-7.009S60.504 80.831 60.505 80.842z" fill="url(#SvgjsRadialGradient14452)" opacity="1"/>
                <path id="SvgjsPath14455" d="M88.143 81.99c-0.995-1.708-5.02-5.623-10.804-6.99C84.38 76.245 86.134 78.672 88.143 81.99z" fill="#9f6037" stroke-width="none" opacity="1" stroke="none"/>
                <path id="SvgjsPath14456" d="M60.707 81.467c0.099 1.422 1.79 5.64 2.534 6.819 -2.275-1.08-2.705-4.186-7.099-8.199 14.067-7.027 24.748-5.142 32 5.061C78.764 76.573 71.396 75.496 60.707 81.467zM83.776 89.792c0 0-6.42 2.373-9.923 2.41 -3.503 0.039-8.483-1.906-8.483-1.906s4.851 2.565 8.483 2.57C77.487 92.872 83.776 89.792 83.776 89.792z" fill="#000000" stroke-width="none" opacity="1" stroke="none"/>
              </g>
            </g>
          </g>
          <g id="svga-group-eyes-right-move" transform="matrix(1,0,0,1,0,0)">
            <g id="svga-group-eyes-right" transform="matrix(1,0,0,1,0,0)">
              <g id="svga-group-eyesback-right">
                <path id="SvgjsPath14428" d="M139.097 80.842c-0.241 2.336-0.667 11.497-13.706 11.489 -5.836-0.005-13.361-3.612-13.211-8.063 0 0 6.704-7.009 14-7.009S139.098 80.831 139.097 80.842z" fill="url(#SvgjsRadialGradient14429)" opacity="1"/>
              </g>
              <g id="svga-group-eyesiriswrapper-right" transform="matrix(1,0,0,1,-0.5,0.75)">
                <g id="svga-group-eyesiriscontrol-right" transform="matrix(1,0,0,1,0,0)">
                  <g id="svga-group-eyesiris-right" transform="matrix(1,0,0,1,0,0)">
                    <path id="SvgjsPath14485" d="M132,83.999c0,3.316-2.684,6-6,6s-6-2.684-6-6s2.684-6,6-6S132,80.683,132,83.999z" fill="#000000" stroke-width="none" opacity="1"/>
                    <path id="SvgjsPath14486" d="M122.508 86.806c0.879-0.076 0.105-0.305 0.105-0.305 -0.434-0.234-1.254-0.592-1.254-0.926 0-1.031 1.418-1.295-0.023-1.705 -1.512-1.377 1.16-1.348 1.137-1.395 -0.973-2.379 0.305-1.072 0.844-1.775 1.98-2.596 0.551 0.27 1.629 0 0.387-0.094-0.785-1.529 0.035-1.33 0.539 0.135 0.656 0.58 0.656 0.58 0.398-0.076 1.008-0.68 1.008-0.68 0.75 0.223 1.277 1.289 1.043 1.09 0.375-0.047 0.891-0.223 1.289-0.34 0 0 0.07-0.24 0.141-0.035 0.914 2.66 3.281 2.473 0.563 3.24 0 0-0.176 0 0.375 0.439 2.707 2.168-2.098 1.494 0.457 2.49 0.105-0.1-1.535 0.967-1.535 1.266 0 0.498-1.043 1.816-1.945 1.295 -0.504-0.287-0.586 0.604-0.879 0.193 -0.574-0.803-1.746-0.035-1.313-0.773 0.633-0.521-0.656 0.205-0.902 0.205 -0.832 0 1.078-2.783 3.891-0.715 0.82 0.598-0.867-1.436 0.633-1.436 0.141 0.047 0.105-0.521 0.105-0.68 -0.785-0.152 1.383-0.006 1.383-1.266 0.141 0.029 0.516-0.346-1.629 0 0 0-0.07-0.75-0.035-0.885 0.105-0.439 1.207-0.299 0.902-0.75l-0.797-1.605c-2.578-0.41-1.102-0.668-2.719-0.34 -0.07 0.381-3.445 1.986-3.34 2.73 0.105 0.703 2.121 0.938 0.211 2.18C125.402 91.054 120.434 85.452 122.508 86.806z" fill="#0f0f0f" stroke-width="none" opacity="1"/>
                    <path id="SvgjsPath14487" d="M126 78.749l0.176 4.395 1.828-3.996 -1.523 4.125 3.234-2.988 -2.988 3.229 4.125-1.523 -3.996 1.84 4.395 0.17 -4.395 0.17 3.996 1.84 -4.125-1.523 2.988 3.229 -3.234-2.988 1.523 4.125 -1.828-3.996L126 89.249l-0.176-4.395 -1.84 3.996 1.523-4.125 -3.223 2.988 2.988-3.229 -4.125 1.523 3.996-1.84 -4.395-0.17 4.395-0.17 -3.996-1.84 4.125 1.523 -2.988-3.229 3.223 2.988 -1.523-4.125 1.84 3.996L126 78.749z" fill="#000000" stroke-width="none" opacity="1"/>
                    <path id="SvgjsPath14488" d="M126.797 80.067l-0.539 3.316 1.98-2.713 -1.77 2.859 2.871-1.752 -2.719 1.969 3.316-0.516 -3.27 0.768 3.27 0.797 -3.316-0.539 2.707 1.98 -2.859-1.764 1.746 2.871 -1.957-2.725 0.516 3.316L126 84.667l-0.797 3.264 0.539-3.316 -1.98 2.713 1.77-2.859 -2.871 1.752 2.719-1.969 -3.316 0.516 3.27-0.768 -3.27-0.797 3.316 0.539 -2.707-1.98 2.859 1.764 -1.746-2.871 1.957 2.725 -0.516-3.316 0.773 3.27L126.797 80.067z" fill="#000000" stroke-width="none" opacity="1"/>
                    <path id="SvgjsPath14489" d="M128.25 83.999c0 1.242-1.008 2.25-2.25 2.25s-2.25-1.008-2.25-2.25 1.008-2.25 2.25-2.25S128.25 82.757 128.25 83.999z" fill="#000000" stroke-width="none" opacity="0.9"/>
                    <path id="SvgjsPath14490" d="M123.633 88.312c-0.328 0.328-0.984 0.217-1.453-0.264 -0.48-0.475-0.598-1.125-0.258-1.459 0.328-0.328 0.984-0.211 1.453 0.264C123.855 87.327 123.973 87.978 123.633 88.312z" fill="#ffffff" stroke-width="none" opacity="0.7"/>
                    <path id="SvgjsPath14491" d="M130.805 82.815c-0.492 0.498-1.699 0.105-2.684-0.885 -0.984-0.984-1.383-2.186-0.879-2.678 0.492-0.498 1.688-0.105 2.672 0.885C130.91 81.122 131.297 82.323 130.805 82.815z" fill="#ffffff" stroke-width="none" opacity="0.9"/>
                  </g>
                </g>
              </g>
              <g id="svga-group-eyesfront-right">
                <path id="SvgjsPath14466" d="M125.402 58.999c-10.493 0-19 11.193-19 25s8.507 25 19 25 19-11.193 19-25S135.896 58.999 125.402 58.999zM125.391 92.331c-5.836-0.005-13.361-3.612-13.211-8.063 0 0 6.704-7.009 14-7.009s12.918 3.572 12.917 3.583C138.855 83.179 138.43 92.339 125.391 92.331z" fill="#cda184" stroke-width="none" opacity="1" stroke="none"/>
                <path id="SvgjsPath14467" d="M123.031 70c-9.66-0.041-17.502 6.192-17.526 13.922 -0.026 7.735 7.789 14.033 17.446 14.077 9.659 0.038 18.631-6.193 18.553-13.926C141.399 73.495 132.692 70.043 123.031 70zM125.391 92.331c-5.836-0.005-13.361-3.612-13.211-8.063 0 0 6.704-7.009 14-7.009s12.918 3.572 12.917 3.583C138.855 83.179 138.43 92.339 125.391 92.331z" fill="url(#SvgjsRadialGradient14468)" opacity="1"/>
                <path id="SvgjsPath14472" d="M139.097 80.842c-0.241 2.336-0.667 11.497-13.706 11.489 -5.836-0.005-13.361-3.612-13.211-8.063 0 0 6.704-7.009 14-7.009S139.098 80.831 139.097 80.842z" fill="url(#SvgjsRadialGradient14473)" opacity="1"/>
                <path id="SvgjsPath14476" d="M111.459 81.99c0.995-1.708 5.02-5.623 10.804-6.99C115.222 76.245 113.468 78.672 111.459 81.99z" fill="#9f6037" stroke-width="none" opacity="1" stroke="none"/>
                <path id="SvgjsPath14477" d="M111.459 85.148c7.252-10.203 17.933-12.088 32-5.061 -4.394 4.013-4.823 7.119-7.099 8.199 0.744-1.179 2.436-5.397 2.534-6.819C128.205 75.496 120.838 76.573 111.459 85.148zM125.748 92.866c3.633-0.005 8.483-2.57 8.483-2.57s-4.98 1.944-8.483 1.906c-3.503-0.038-9.923-2.41-9.923-2.41S122.114 92.872 125.748 92.866z" fill="#000000" stroke-width="none" opacity="1" stroke="none"/>
              </g>
            </g>
          </g>
          <g id="svga-group-facehighlight-single">
            <path id="SvgjsPath12374" d="M141 113.974c0.035 22.622-18.292 40.994-40.938 41.025 -22.642 0.037-41.028-18.273-41.063-40.9 -0.035-22.62 18.292-41.064 40.937-41.1C122.579 72.964 140.967 91.349 141 113.974z" fill="url(#SvgjsRadialGradient12375)" opacity="1"/>
            <path id="SvgjsPath12378" d="M137.5 53.999c0 20.711-16.789 37.5-37.499 37.5 -20.711 0-37.501-16.789-37.501-37.5s16.79-37.5 37.501-37.5C120.711 16.499 137.5 33.288 137.5 53.999z" fill="url(#SvgjsRadialGradient12379)" opacity="1"/>
          </g>
          <g id="svga-group-eyebrows-left-move" transform="matrix(1,0,0,1,0,0)">
            <g id="svga-group-eyebrows-left-rotate" transform="matrix(0.9999999999999999,1.7453291867308707e-9,-1.7453291867308707e-9,0.9999999999999999,1.2481045530421397e-7,-1.2568361285048013e-7)">
              <g id="svga-group-eyebrows-left" transform="matrix(1,0,0,1,0,0)">
                <path id="SvgjsPath14492" d="M54 74.189c9.954-9.974 16.761-5.915 30.589-3.264 0.845 0.162 6.32 1.539 5.31 3.469 -0.483 0.924-2.036 0.814-2.903 0.798C73.308 74.936 66.652 65.197 54 74.189z" fill="#4e4341" stroke-width="none" opacity="1"/>
              </g>
            </g>
          </g>
          <g id="svga-group-eyebrows-right-move" transform="matrix(1,0,0,1,0,0)">
            <g id="svga-group-eyebrows-right-rotate" transform="matrix(1,1.7453291034641438e-9,-1.7453291034641438e-9,1,1.2481042688250454e-7,-2.2338150529321865e-7)">
              <g id="svga-group-eyebrows-right" transform="matrix(1,0,0,1,0,0)">
                <path id="SvgjsPath14493" d="M146 74.189c-9.953-9.974-16.761-5.915-30.589-3.264 -0.846 0.162-6.32 1.539-5.311 3.469 0.483 0.924 2.036 0.814 2.903 0.798C126.691 74.936 133.348 65.197 146 74.189z" fill="#4e4341" stroke-width="none" opacity="1"/>
              </g>
            </g>
          </g>
          <g id="svga-group-nose-single-move" transform="matrix(1,0,0,1,0,0)">
            <g id="svga-group-nose-single" transform="matrix(1,0,0,1,0,0)">
              <path id="SvgjsPath14400" d="M101.1 120.646c-0.471 0.511-0.856 0.45-1.301-0.08l-4.95-5.988H107L101.1 120.646z" fill="#be8a67" stroke-width="none" opacity="1" stroke="none"/>
              <path id="SvgjsPath14401" d="M93.461 115.507l6.435 5.235c0.537 0.437 0.744 0.271 0.464-0.367l-2.295-5.2c-0.112-0.252-0.146-0.676-0.078-0.943l1.676-26.41 -6.383 25.917C92.844 114.276 92.925 115.071 93.461 115.507z" fill="#9f6037" stroke-width="none" opacity="1" stroke="none"/>
            </g>
          </g>
          <g id="svga-group-beardwrap" transform="matrix(1,0,0,1,0,0)">
            <g id="svga-group-beard-single-move" transform="matrix(1,0,0,1,0,4)">
              <g id="svga-group-beard-single" transform="matrix(0.8499995000000001,0,0,0.8499995000000001,15.009398137544622,22.968035773120874)">
                <path id="SvgjsPath14597" d="M99.85 166.08c-2.22-0.47-8.06-2.32-9.81-3.06 -3.4-1.4-5.58-3.23-6.66-5.6 -2.05-4.93 3.17-20.64 16.6-16.63 7.8-1.63 11.89 1.02 15.57 8.27 1.78 3.7 2.09 6.36 1 8.62C114.83 161.24 109.52 163.91 99.85 166.08z" fill="#2a232b" stroke-width="none" opacity="1"/>
                <path id="SvgjsPath14598" d="M99.85 166.19c-2.28-0.48-8.17-2.36-9.85-3.07 -3-1.24-5.48-2.96-6.71-5.65 -1.58-3.8 1.05-13.58 8.13-16.55 -4.28 4.4-8.02 10.63-4.37 16.37 3.07 4.61 10.53 5.99 12.74 7.37 4.23-2.06 10.67-2.5 13.69-8.47 1.79-3.22-0.1-10.47-3.77-14.45 2.41 1.47 4.25 3.96 5.94 7.28C119.18 156.38 118.28 162.04 99.85 166.19zM100.15 166.07c-0.76-1-0.73-0.92-1.48-2.34 -4.08-7.98-10.23-9.82-7.86-15.14 -0.82 4.29 4.11 7.17 6.02 9.59 0.31 0.39 0.47 0.66 0.47 0.66C99.37 162.37 98.98 163.23 100.15 166.07zM106.05 160.08c4.17-2.78 4.82-8.72 1.29-11.88C109.7 151.63 108.97 157.48 106.05 160.08zM97.76 144.34c-0.13-1.33 0.56-1.54 0.56-1.54s-0.53 0.11-0.81 0.81c-1.17 3.12 1.94 4.92 3.38 11.55C101.21 149.27 98.18 148.11 97.76 144.34z" fill="#1b141c" stroke-width="none" opacity="1"/>
                <path id="SvgjsPath14599" d="M115.63 149.02c-3.42-6.73-7.48-10.09-15.63-8.32 -13.45-4.02-18.82 11.7-16.72 16.77 1.23 2.69 3.71 4.41 6.71 5.65 1.68 0.71 7.57 2.59 9.85 3.07C118.28 162.04 119.18 156.38 115.63 149.02zM100.46 165.72c-0.2 0.07-0.4 0.13-0.59 0.18 -7.9-2.59-13.7-4.63-15.58-8.77 -1.76-4.2 1.86-19.08 15.7-16.2 8.03-1.15 11.27 1.89 14.68 8.48C119.3 159.27 112.58 161.69 100.46 165.72z" fill="#000000" stroke-width="none" opacity="1"/>
              </g>
            </g>
          </g>
          <g id="svga-group-mustache-single-move" transform="matrix(1,0,0,1,0,0)">
            <g id="svga-group-mustache-single" transform="matrix(1,0,0,1,0,0)">
              <path id="SvgjsPath14594" d="M100,18.13L100,18.13L100,18.13L100,18.13z" fill="#2a232b" stroke-width="none" opacity="1"/>
            </g>
          </g>
          <g id="svga-group-hair-front" transform="matrix(1,0,0,1,0,0)">
            <path id="SvgjsPath14613" d="M44.974,94.895c-2.423-8.815-3.728-16.533-5.54-24.585l0.083-0.019c-0.686-1.689-3.162-15.06-3.185-15.204c-2.525-17.77,4.993-18.784,4.84-26.198c3.165,1.585,6.242,0.799,9.019-1.365c-2.918-1.499-1.997-1.736-5.872-4.095c2.731-0.472,4.326,0.165,6.646,0.454c-1.983-1.983-5.875-6.028-8.404-5.492l-0.165-0.354c3.661-2.857,8.548,3.091,12.954,1.48C55.483,3.144,79.417-0.256,85.242-2.689c7.755-2.951,15.856-9.441,21.553-10.021c-3.225,3.241-5.2,8.449-5.347,12.358c4.698-4.486,5.03-4.355,12.151-12.264c0,6.364-1.763,7.163-4.051,10.898c6.211-4.07,13.955-15.489,25.881-17.235l0.131,0.37c-4.298,2.532-7.624,6.804-9.898,12.708c2.257-2.726,5.451-5.683,8.986-6.218l0.133,0.369c-2.215,1.325-6.554,5.742-7.547,13.138c4.381-4.893,11.35-8.948,16.134-10.48l0.187,0.346c-4.392,3.573-6.153,9.828-7.146,15.146c3.08-4.58,4.872-5.624,8.747-7.548c-1.247,1.865-1.166,1.539-2.158,3.566c2.396,6.123,10.313,6.361,11.666,17.059c1.63-1.424,2.277-1.781,4.151-3.092l0.282,0.272c-1.408,2.187-2.569,6.06-3.342,8.652c2.78-2.123,7.073-3.687,10.096-4.778l0.211,0.328c-2.551,2.593-5.648,6.546-6.162,10.834c1-0.592,1.048-0.524,2.35-1.466c0,3.081,0.105,2.688,0.127,4.105c1.257-1.125,1.45-1.282,2.276-2.181c-0.183,32.362-1.845,25.912-6.317,48.466c-0.784,3.963-2.171,10.883-3.061,14.207l-6.049,1.039c1.87-22.394-0.093-17.512,1.267-31.604c2.012-20.779-14.804-37.812-37.025-32.237c-4.496,1.128-22.44,1.127-26.934,0c-24.547-6.163-33.391,8.18-36.026,33.278c-1.291,12.318-1.607,8.161,0.267,30.563L44.974,94.895z" fill="#080806" stroke-width="none" opacity="1"/>
            <path id="SvgjsPath14614" d="M162.376,34.359c-0.021-1.418-0.127-1.024-0.127-4.105c-1.302,0.941-1.35,0.874-2.35,1.466c0.514-4.288,3.611-8.241,6.162-10.834l-0.211-0.328c-3.022,1.092-7.315,2.655-10.096,4.778c0.772-2.592,1.934-6.465,3.342-8.652l-0.282-0.272c-1.874,1.311-2.521,1.668-4.151,3.092c-1.353-10.697-9.27-10.936-11.666-17.059c0.992-2.027,0.911-1.701,2.158-3.566c-3.875,1.924-5.667,2.968-8.747,7.548c0.993-5.318,2.755-11.573,7.146-15.146l-0.187-0.346c-4.784,1.532-11.753,5.587-16.134,10.48c0.993-7.396,5.332-11.813,7.547-13.138l-0.133-0.369c-3.535,0.535-6.729,3.493-8.986,6.218c2.274-5.904,5.601-10.176,9.898-12.708l-0.131-0.37c-11.926,1.746-19.67,13.165-25.881,17.235c2.288-3.735,4.051-4.535,4.051-10.898c-7.121,7.909-7.453,7.778-12.151,12.264c0.146-3.909,2.122-9.118,5.347-12.358c-5.696,0.58-13.797,7.069-21.553,10.021C79.417-0.256,55.483,3.144,55.35,19.518c-4.406,1.611-9.293-4.337-12.954-1.48l0.165,0.354c2.529-0.537,6.421,3.508,8.404,5.492c-2.319-0.289-3.915-0.926-6.646-0.454c3.875,2.359,2.954,2.596,5.872,4.095c-2.777,2.164-5.854,2.95-9.019,1.365c0.153,7.415-7.366,8.429-4.84,26.198c0.023,0.144,2.499,13.515,3.185,15.204l-0.083,0.019c1.812,8.052,3.117,15.771,5.54,24.585L45,94.899c-0.661-16.442-11.02-39.816-4.941-54.788C40.852,38.156,43.92,33,43.92,33s9.627-1.264,10.08-5c0,0-2-1-3-2c2,1,2-2,4-1c0-2-3-1-3-3c2,0,4,0,6,2c-1-5,0-10,4-13C72,3,85,4,95-4c-1,5-2,10-2,15c6-3,8-9,13-13c1,4-1,9-1,13c3-7,7-14,16-16c-4,4-4,10-4,15c0-4,4-6,5-9c0,4,0,8,0,12c2-6,6-9,11-11c-4,4-3,8-4,13c3-3,7-4,10-7c3,6,1,11,1,17c1-5,6-8,9-12c1,5,1,10,0,15c1-3,3-5,4-8c0,4.86-0.668,9.062-1.98,13.142c1.255-1.452,3.304-2.111,3.98-4.142c0,4.325,0,7.904,0,12.027c0.58-1.192,2.29-1.608,3-3.027c-0.854,3.413-0.254,6.103-0.059,9.302c0.371-1.96,2.258-3.162,2.94-4.967c0.04-0.778,0.081-1.557,0.118-2.335c0.229,0.912,0.135,1.664-0.118,2.335c-0.912,17.771-2.593,35.516-6.256,52.628l0.648-0.111c0.89-3.324,2.276-10.244,3.061-14.207c4.473-22.554,6.135-16.104,6.317-48.466C163.826,33.078,163.633,33.235,162.376,34.359z" fill="#171714" stroke-width="none" opacity="1"/>
            <path id="SvgjsPath14615" d="M167.779,19.695c-4.949,0.834-8.406,2.438-11.05,4.25c0.385-1.005,2.193-6.67,4.14-9.05c-2.99,1.333-4.72,2.763-5.72,3.51c0-1.032-0.398-2.224-0.59-2.84c-0.189-0.515-0.348-1.117-1.271-2.62c-5.171-7.296-5.494-4.244-9.729-9.83c0.772-1.811,1.889-3.572,3.29-5.03c-3.908,0.555-5.965,2.075-8.44,4.51c-0.04,0.04-0.07,0.08-0.1,0.12c1.551-6.126,4.59-11.437,10.56-13.43c-7.384-0.268-16.525,5.192-21.12,10.64c1.984-6.381,4.646-9.421,8.601-12.25c-2.846-0.421-5.635,0.742-7.841,2.58c2.541-4.397,6.317-7.899,9.351-9.53c-0.431-0.01-0.94-0.04-1.5,0c-0.777-0.199-5.479,0.566-7.16,1.29c-8.329,3.252-14.389,10.822-16.99,13.28c1.916-3.098,2.01-5.298,1.66-8.52c-0.655,0.563-11.615,11.055-11.75,11.19c0.777-4.309,2.245-6.937,5.02-10.79c-4.947-0.926-17.332,7.217-25.01,9.39c-8.044,2.179-28.004,6.723-27.09,22.7c-4.295,0.819-10.584-6.077-13.88-0.29c2.646-1.57,6.151,2.21,8.59,4.37c-1-0.163-4.343-0.948-5.96,0.13c1.894,0.735,3.55,2.932,5.89,4.1c0.03,0.01,0.06,0.02,0.09,0.04c-2.139,1.128-4.667,2.034-6.99,1.39c-0.35-0.1-0.58-0.16-0.58-0.17c-0.27-0.12-0.56-0.24-0.87-0.38h-0.01l-0.01-0.01c-0.13-0.07-0.26-0.14-0.4-0.21c0.695,5.608-7.817,10.155-6.88,22.02c0.385,7.301,4.949,29.508,10.686,44.566l0.483,0.144c-2.392-8.626-3.777-16.74-5.569-24.701c-0.156,0-3.073-15.044-3.1-15.21c-2.506-17.631,4.994-18.91,4.85-25.84c3.121,1.561,6.532,0.436,9.18-1.73c-3.118-1.551-2.453-1.988-5.68-3.95c2.163-0.374,4.803,0.483,6.62,0.6c-2.346-2.346-6.299-6.51-8.98-5.94c3.568-2.785,8.497,3.271,13.03,1.46c0-16.383,23.723-19.635,29.77-22.16c7.271-2.766,16.283-9.476,20.939-9.95c-2.44,2.458-5.02,7.901-5.02,12.58c4.834-4.638,5.31-4.615,12.16-12.22c0,6.014-2.247,7.088-4.431,10.97c6.414-3.698,14.179-15.828,26.49-17.63c-5.154,3.037-8.435,8.325-10.41,13.97c2.352-3.059,5.8-6.53,9.63-7.11c-2.009,1.202-6.861,5.782-7.72,13.93c4.345-5.114,11.586-9.346,16.47-10.91c-4.605,3.748-6.368,10.371-7.39,16.22c1.687-2.573,3.357-4.897,5.97-6.54c0.011-0.01,0.03-0.02,0.04-0.02c1.029-0.699,0.76-0.509,2.521-1.39c-0.669,1-0.731,0.87-1.79,3.04c2.426,6.377,10.523,6.413,11.729,17.47c1.857-1.647,2.441-1.944,4.42-3.33c-1.542,2.394-2.784,6.768-3.55,9.32c2.905-2.485,8.279-4.33,10.54-5.15c-3,3.05-5.913,7.096-6.26,11.36c0.614-0.413,1.394-0.74,2.39-1.46c0,2.724,0.13,2.36,0.13,4.16c0.526-0.481,1.72-1.51,2.271-2.11c-0.196,31.716-1.88,25.564-6.311,47.91c-1.658,8.376-2.533,12.25-3.081,14.283l0.428-0.087c3.584-10.751,10.737-35.042,10.414-47.616c-0.033-4.7-1.059-14.5-1.11-15.5c-0.021,0.018-2.084,1.97-2.11,1.97c0-0.511-0.21-2.685-0.21-3.87c-0.353,0.271-1.095,0.778-2.09,1.36C161.758,26.981,163.857,24.394,167.779,19.695z" fill="#000000" stroke-width="none" opacity="1"/>
          </g>
          <g id="svga-group-glasses-single-move" transform="matrix(1,0,0,1,0,0)">
            <g id="svga-group-glasses-single" transform="matrix(1,0,0,1,0,0)">
              <path id="SvgjsPath14560" d="M148.02 85.54c-0.11 1.96-0.35 4.05-0.59 6.25 -1.04 9.74-5.26 12.49-24.57 11.1 -6.3-0.45-11.06-4.04-13.41-10.1 -0.99-2.55-1.87-5.52-2.37-8.48C116.7 77.81 139.4 77.62 148.02 85.54zM51.98 85.54c0.11 1.96 0.35 4.05 0.59 6.25 1.04 9.74 5.26 12.49 24.57 11.1 6.3-0.45 11.06-4.04 13.41-10.1 0.99-2.55 1.87-5.52 2.37-8.48C83.3 77.81 60.6 77.62 51.98 85.54z" fill="#ffffff" stroke-width="none" opacity="0.2"/>
              <path id="SvgjsPath14561" d="M148.02 85.54c-8.62-7.92-31.33-7.73-40.93-1.23 -0.36-2.11-0.52-4.22-0.36-6.16h0c0.66-7.81 13.45-6.88 20.98-7.17C146.33 70.26 148.56 76.34 148.02 85.54zM93.27 78.14L93.27 78.14c-0.66-7.81-13.45-6.88-20.99-7.17 -18.61-0.71-20.85 5.37-20.31 14.56 8.62-7.92 31.33-7.73 40.93-1.23C93.26 82.19 93.43 80.09 93.27 78.14z" fill="#ffffff" stroke-width="none" opacity="0.4"/>
              <path id="SvgjsPath14562" d="M149.91 75.08c-0.62-1.42-1.48-2.7-2.56-3.65 -2.47-2.16-7.08-2.46-11.39-2.71 -4.19-0.23-12.15-0.42-17.46-0.08 -13.8 0.9-13.57 7-13.57 7 -1.81 0-8.03 0-9.84 0 0 0 0.23-6.11-13.57-7 -5.32-0.34-13.27-0.16-17.46 0.08 -4.31 0.24-8.93 0.55-11.39 2.71 -1.09 0.95-1.94 2.22-2.56 3.65l-8.19-1.58v3.99c7.17 1.38 9.02 1.82 10.02 1.76 -0.25 3.01-0.36 8.35 0.29 12.59 1.54 10.07 5.78 12.78 24.94 11.4 6.36-0.46 11.35-4.23 13.72-10.33 1.86-4.8 3.14-9.09 2.81-14.28h12.64c-0.33 5.19 0.95 9.49 2.81 14.28 2.36 6.1 7.36 9.87 13.72 10.33 19.17 1.38 23.41-1.33 24.94-11.4 0.65-4.24 0.54-9.58 0.29-12.59 1 0.06 2.85-0.38 10.02-1.76V73.5L149.91 75.08zM90.07 92.61c-2.27 5.87-6.88 9.35-12.98 9.78 -19.08 1.37-22.61-1.33-24.04-10.68 -0.76-5.01-0.35-11.52-0.25-12.52 0.19-0.03 0.31-0.06 0.32-0.1 1.09-6.36 6.45-8.42 29.02-7.35 3.73 0.18 6.92 0.88 8.69 2.75 1.04 1.09 2.04 2.66 1.95 4.17l0.04 0C93.02 81.2 92.44 86.5 90.07 92.61zM146.94 91.72c-1.43 9.35-4.96 12.05-24.04 10.68 -6.1-0.44-10.71-3.92-12.98-9.78 -2.37-6.11-2.94-11.41-2.74-13.95l0.04 0c-0.09-1.5 0.91-3.07 1.95-4.17 1.77-1.87 4.96-2.57 8.69-2.75 22.57-1.06 27.92 0.99 29.02 7.35 0.01 0.04 0.13 0.08 0.32 0.1C147.29 80.2 147.71 86.71 146.94 91.72z" fill="#2c2c2c" stroke-width="none" opacity="1"/>
              <path id="SvgjsPath14563" d="M104.94 75.34c0.17-1.26 1.63-5.92 13.54-6.69 5.32-0.34 13.27-0.16 17.46 0.08 4.31 0.24 8.93 0.55 11.39 2.71 1.09 0.95 1.94 2.22 2.56 3.65l0 0c-3.72-6.16-10.22-5.54-14.01-5.75 -2.3-0.13-6.21-0.27-10.28-0.27 -2.77 0-5.15 0.06-7.06 0.19C111.48 69.71 107.56 70.92 104.94 75.34zM95.06 75.34c-0.17-1.26-1.63-5.92-13.54-6.69 -5.32-0.34-13.27-0.16-17.46 0.08 -4.31 0.24-8.93 0.55-11.39 2.71 -1.09 0.95-1.94 2.22-2.56 3.65l0 0c3.72-6.16 10.22-5.54 14.01-5.75 2.3-0.13 6.21-0.27 10.28-0.27 2.77 0 5.15 0.06 7.06 0.19C88.52 69.71 92.44 70.92 95.06 75.34z" fill="#3b3b3b" stroke-width="none" opacity="1"/>
            </g>
          </g>
        </g>
      </g>
    </g>
    <rect id="SvgjsRect12359" width="200" height="15" x="0" y="185" fill="#ecf0f1" opacity="0.5" style="display: none;"/>
    <text id="SvgjsText12360" font-family="Roboto, Helvetica, Arial, sans-serif" font-size="10px" text-anchor="start" font-weight="400" anchor="start" fill="#333333" x="58.084716796875" y="182.42838287353516" style="display: none;">
      <tspan id="SvgjsTspan12361" dy="13" x="58.084716796875">Created on face.co</tspan>
    </text>
  </g>
</svg>
